PathFileType	4	(X/Y/Z)	10_1_6_p0_0-414.trc
DataRate	CameraRate	NumFrames	NumMarkers	Units	OrigDataRate	OrigDataStartFrame	OrigNumFrames
59.0	59.0	5	27	m	59.0	259	415
Frame#	Time	RHip			RKnee			RAnkle			RBigToe			RSmallToe			RHeel			LHip			LKnee			LAnkle			LBigToe			LSmallToe			LHeel			Neck			Head			Nose			RShoulder			RElbow			RWrist			RThumb			RIndex			RPinky			LShoulder			LElbow			LWrist			LThumb			LIndex			LPinky			
		X1	Y1	Z1	X2	Y2	Z2	X3	Y3	Z3	X4	Y4	Z4	X5	Y5	Z5	X6	Y6	Z6	X7	Y7	Z7	X8	Y8	Z8	X9	Y9	Z9	X10	Y10	Z10	X11	Y11	Z11	X12	Y12	Z12	X13	Y13	Z13	X14	Y14	Z14	X15	Y15	Z15	X16	Y16	Z16	X17	Y17	Z17	X18	Y18	Z18	X19	Y19	Z19	X20	Y20	Z20	X21	Y21	Z21	X22	Y22	Z22	X23	Y23	Z23	X24	Y24	Z24	X25	Y25	Z25	X26	Y26	Z26	X27	Y27	Z27	
259	4.389830508474576	0.3083794161687638	0.5404547676535197	0.9288036658616471	0.3111456276717397	0.6628517234828539	1.3764795114114534	0.3280052451751615	0.7768736462868981	1.791550022653805	0.27152379011860517	0.607296603926258	1.8482060602152888	0.33382034410935896	0.6438507440713807	1.8523616791059134	0.3020860556595167	0.8974427832191101	1.8664582779914258	0.07989854276199759	0.5391657923689905	0.9297026484514449	0.09218441001812978	0.6321338965561223	1.3612929903924085	0.09866348984468169	0.7647297114021722	1.7823794922329708	0.1180060663393336	0.628847214666194	1.8551786978434768	0.059746899081142966	0.6535938582178407	1.8384819116411633	0.11038742265117724	0.8853444353786442	1.842107401616163	0.15107552451330808	0.30593457108337413	0.36507376354349425	0.15468203135203168	0.18435576370681986	0.1202421969025767	0.1212826954577515	0.1445169031918032	0.249969247342189	0.3262016525505465	0.3424404484517905	0.45940338736301867	0.4328126885049618	0.4378699803184212	0.7152330675832607	0.4092608286147827	0.46172066720300725	0.9656689620919323	0.35037465304910476	0.4793802548397016	1.0712262305288687	0.3594765101637648	0.4907154432364711	1.1030892138962414	0.4015549782784284	0.5519169635696108	1.11083456376962	-0.004742641287784399	0.356561813787809	0.4525045112580506	-0.060316275211684485	0.4860208204145219	0.7165678766732947	0.030787097157574706	0.42193926198829285	0.9106606048181852	0.09633475302501528	0.3466819651966609	0.9894919809737648	0.08960225214697748	0.3349769624895121	1.0032241542694504	0.03980528411130045	0.4171619354418355	1.0114820776344609
260	4.406779661016949	0.30939371844754815	0.5419895469388741	0.9295205804626621	0.3112013211487053	0.6666526501916871	1.3855139127589713	0.3270746573552695	0.7785088393977637	1.7962245941651076	0.2708372570231699	0.6086546129770071	1.8531757949439347	0.3312595995374692	0.6295605521714963	1.8477723667214805	0.3017418684370016	0.9031399935183874	1.8776318131429894	0.08090569434913096	0.5403905495856673	0.93046426697415	0.092178262234684	0.632069500941941	1.361471558481513	0.09855304945933673	0.7646933828178634	1.7825125429908957	0.11703059789322035	0.6300577740540808	1.8595899024149853	0.05979235020768757	0.6533476864621848	1.8383631284712803	0.1059967944237881	0.8808610898840212	1.8409173716830167	0.1512494697585161	0.3081660644732203	0.36808717124468204	0.15475925676510208	0.18353649061064017	0.1171265241564869	0.13003890338288446	0.13689902260825632	0.2539326127622851	0.32608309294838317	0.34308450072660585	0.4559096974139223	0.4293005928099731	0.45134045203828976	0.7121249795162626	0.4116206082656691	0.47219942342645266	0.9627407578004764	0.35026212754795233	0.47894767785461945	1.0706550288256502	0.35922069660675815	0.4865314579930776	1.0947646223659568	0.39765787420187265	0.5481637229750194	1.105429374826368	-0.0046401341981817685	0.35646103855789085	0.45245158037932953	-0.06651102999734317	0.5017107458698308	0.7208593680018294	0.024768555510073516	0.4079935524041857	0.9098152660345128	0.09606815499535357	0.34665035974299235	0.9895250018054376	0.0892258614406225	0.33525478876866777	1.0032550908396316	0.032163345063727776	0.41732997067652927	1.016008675316045
261	4.423728813559322	0.30906884373007454	0.5430980790673999	0.9330453427407306	0.31110188970999797	0.6666493748718034	1.3854295987587224	0.3214990079842522	0.7965061228396767	1.7985379473653935	0.27071234445762665	0.6081866836853639	1.8527725857153439	0.3311325934864986	0.6285496413739096	1.847281129061803	0.29631295647427724	0.9207017098018633	1.8845153590228203	0.08038866796097908	0.541360543382536	0.9342273176357472	0.09216805738899843	0.6319542324227647	1.3615159987071952	0.09819751480580147	0.7694326438519524	1.7926426055091833	0.11703885895816789	0.6293714074573046	1.8594947985695383	0.05936219611906325	0.6578742284111425	1.8475491450959662	0.10763520736857514	0.8758396493790312	1.8479230345271922	0.1528883777612725	0.3179464764695862	0.35967080254690853	0.1585908722699166	0.18733600928955826	0.11916403540694376	0.13821250793516707	0.15965687521679445	0.25004010239480334	0.32897613950052534	0.35375087397613725	0.4549264638092958	0.43361964467375175	0.4373629796536486	0.7113739227360766	0.4121940771887888	0.4466299471331962	0.955593247222432	0.3502521752271376	0.47819588230835164	1.0702685985735914	0.3582414032167759	0.4804621590915939	1.0783656336500735	0.39476251843136906	0.5297935236077825	1.0868225689271527	-0.004613933080248936	0.356518615430607	0.45263506865266756	-0.06666301215721676	0.5015929965668918	0.7208104197231952	0.024679251111373427	0.40783703367733526	0.9097863669270152	0.09611289583578714	0.3465485292255738	0.9896640627917432	0.08909224981471213	0.33227403673195316	0.9961986772778607	0.028213367148222788	0.4135236672909532	1.0117390282119254
262	4.440677966101695	0.3086415775161816	0.5410836329591817	0.9291598403412661	0.31149212809758975	0.666455919404084	1.3771487325319829	0.3219569028300558	0.7948098404348991	1.8024275254969782	0.2753848538611763	0.5933174018635192	1.8464077966059107	0.3309554838322556	0.6282577521514117	1.8469802050488813	0.2884597452428091	0.9026698365932544	1.8788227086971516	0.07606192027892315	0.5367919407068037	0.9298425650913601	0.09217530192893811	0.6320218048523645	1.3614705287386544	0.09740710212123432	0.7662101355620764	1.7876352461403258	0.11703243031044949	0.6297411935884747	1.8594374765028323	0.05885843203125094	0.6544829798139853	1.8426420944272346	0.10673957518862731	0.8725360263986408	1.8432575168957175	0.15783468212935342	0.30619228147215616	0.36052092409064895	0.16551418334052476	0.18667025950318383	0.11909589273909107	0.1569779759493364	0.18282249591518102	0.2424328952994966	0.3289620387170801	0.35379394219682614	0.4548587596145719	0.4451688385942681	0.4492088347991441	0.7072291859401615	0.409154142197324	0.4323128018193061	0.9505201591519441	0.3472799313886731	0.4653219160853719	1.0609745556828316	0.3555783878517738	0.4663862627203966	1.0725558102085417	0.3891182127623341	0.5017742922859854	1.0792281017130871	-0.004564205001756896	0.3564628550017343	0.4523395565330679	-0.07304936795504112	0.514994264895373	0.7213582058034745	0.024707888472546305	0.40740353637032845	0.9096235341659019	0.0959998745201513	0.3462074365217545	0.9896058820569884	0.08904728580417315	0.3318112338309753	0.9960959587623262	0.027968873942722967	0.4128626687375273	1.0116042604907942
263	4.4576271186440675	0.3083668773405289	0.5380403237968472	0.921750623681084	0.31140011913569593	0.6664317474519237	1.3771353685287944	0.32137991616534967	0.7967291643044153	1.7983791910122517	0.27056137356906196	0.6078906880744137	1.8523366886644508	0.33091365347213275	0.6285247540759549	1.84699079766269	0.2893885826270449	0.9007783727354901	1.8735624917941274	0.07561051311118784	0.5344805597088808	0.9252846679381261	0.09323052119203654	0.6337788909783691	1.3698583941539348	0.09855708186723824	0.7645432940523603	1.7822221095287611	0.11698755374528574	0.6299239768320468	1.859503350474469	0.058704440197931994	0.6546709161334668	1.8426225464325547	0.11034455276447105	0.8854254047208381	1.8420120418278843	0.16032406771932994	0.31768967211757293	0.3591124391668955	0.1694564943997615	0.1904947034941871	0.12146253997789987	0.1574704494681604	0.18409347115941113	0.24564974198575937	0.3328555415065004	0.35572544522463856	0.4545561236790721	0.45424901344638974	0.4513152599697555	0.7069472757121251	0.4094253475777804	0.4066827928847282	0.9433866566263701	0.33747390368350966	0.4389893939107374	1.057735659469938	0.35463108134710825	0.4625749539190187	1.0686802960963733	0.3855685857177072	0.4858162657351335	1.0726275789376132	0.0009725030448513185	0.3431364033154692	0.4455784255604011	-0.06690289575626435	0.49946565653295416	0.7170194037772095	0.021010820799393242	0.4046385286625608	0.909398196237008	0.09615691432687139	0.3452771776593268	0.9894434984007501	0.08970654519256514	0.333072450535887	0.9996355906048046	0.022493029132769096	0.39849307820142993	1.0104804943717804
